HIERARCHY
ROOT Hips
{
	OFFSET 0.00000 0.00000 0.00000
	CHANNELS 6 Xposition Yposition Zposition Zrotation Yrotation Xrotation 
	JOINT LHipJoint
	{
		OFFSET 0 0 0
		CHANNELS 3 Zrotation Yrotation Xrotation
		JOINT LeftUpLeg
		{
			OFFSET 1.75344 -1.53157 0.77399
			CHANNELS 3 Zrotation Yrotation Xrotation
			JOINT LeftLeg
			{
				OFFSET 2.25415 -6.19323 0.00000
				CHANNELS 3 Zrotation Yrotation Xrotation
				JOINT LeftFoot
				{
					OFFSET 2.30342 -6.32861 0.00000
					CHANNELS 3 Zrotation Yrotation Xrotation
					JOINT LeftToeBase
					{
						OFFSET 0.10958 -0.30108 1.49206
						CHANNELS 3 Zrotation Yrotation Xrotation
						End Site
						{
							OFFSET 0.00000 -0.00000 0.77783
						}
					}
				}
			}
		}
	}
	JOINT RHipJoint
	{
		OFFSET 0 0 0
		CHANNELS 3 Zrotation Yrotation Xrotation
		JOINT RightUpLeg
		{
			OFFSET -1.81912 -1.53156 0.77399
			CHANNELS 3 Zrotation Yrotation Xrotation
			JOINT RightLeg
			{
				OFFSET -2.22882 -6.12365 0.00000
				CHANNELS 3 Zrotation Yrotation Xrotation
				JOINT RightFoot
				{
					OFFSET -2.21943 -6.09785 0.00000
					CHANNELS 3 Zrotation Yrotation Xrotation
					JOINT RightToeBase
					{
						OFFSET -0.18931 -0.52012 1.59379
						CHANNELS 3 Zrotation Yrotation Xrotation
						End Site
						{
							OFFSET -0.00000 -0.00000 0.84686
						}
					}
				}
			}
		}
	}
	JOINT LowerBack
	{
		OFFSET 0 0 0
		CHANNELS 3 Zrotation Yrotation Xrotation
		JOINT Spine
		{
			OFFSET -0.00200 1.66634 -0.14248
			CHANNELS 3 Zrotation Yrotation Xrotation
			JOINT Spine1
			{
				OFFSET -0.00875 1.64542 0.09514
				CHANNELS 3 Zrotation Yrotation Xrotation
				JOINT Neck
				{
					OFFSET 0 0 0
					CHANNELS 3 Zrotation Yrotation Xrotation
					JOINT Neck1
					{
						OFFSET 0.02257 1.59605 0.00839
						CHANNELS 3 Zrotation Yrotation Xrotation
						JOINT Head
						{
							OFFSET -0.10214 1.57530 -0.23335
							CHANNELS 3 Zrotation Yrotation Xrotation
							End Site
							{
								OFFSET -0.03588 1.60717 -0.08062
							}
						}
					}
				}
				JOINT LeftShoulder
				{
					OFFSET 0 0 0
					CHANNELS 3 Zrotation Yrotation Xrotation
					JOINT LeftArm
					{
						OFFSET 2.54983 1.10186 0.40078
						CHANNELS 3 Zrotation Yrotation Xrotation
						JOINT LeftForeArm
						{
							OFFSET 4.28840 -0.00000 0.00000
							CHANNELS 3 Zrotation Yrotation Xrotation
							JOINT LeftHand
							{
								OFFSET 3.06552 -0.00000 -0.00000
								CHANNELS 3 Zrotation Yrotation Xrotation
								JOINT LeftFingerBase
								{
									OFFSET 0 0 0
									CHANNELS 3 Zrotation Yrotation Xrotation
									JOINT LeftHandIndex1
									{
										OFFSET 0.75304 -0.00000 0.00000
										CHANNELS 3 Zrotation Yrotation Xrotation
										End Site
										{
											OFFSET 0.60712 -0.00000 0.00000
										}
									}
								}
								JOINT LThumb
								{
									OFFSET 0 0 0
									CHANNELS 3 Zrotation Yrotation Xrotation
									End Site
									{
										OFFSET 0.61639 -0.00000 0.61639
									}
								}
							}
						}
					}
				}
				JOINT RightShoulder
				{
					OFFSET 0 0 0
					CHANNELS 3 Zrotation Yrotation Xrotation
					JOINT RightArm
					{
						OFFSET -2.60909 1.35448 0.21802
						CHANNELS 3 Zrotation Yrotation Xrotation
						JOINT RightForeArm
						{
							OFFSET -4.52172 -0.00000 -0.00000
							CHANNELS 3 Zrotation Yrotation Xrotation
							JOINT RightHand
							{
								OFFSET -2.89140 -0.00000 0.00000
								CHANNELS 3 Zrotation Yrotation Xrotation
								JOINT RightFingerBase
								{
									OFFSET 0 0 0
									CHANNELS 3 Zrotation Yrotation Xrotation
									JOINT RightHandIndex1
									{
										OFFSET -0.68054 -0.00000 0.00000
										CHANNELS 3 Zrotation Yrotation Xrotation
										End Site
										{
											OFFSET -0.54867 -0.00000 0.00000
										}
									}
								}
								JOINT RThumb
								{
									OFFSET 0 0 0
									CHANNELS 3 Zrotation Yrotation Xrotation
									End Site
									{
										OFFSET -0.55705 -0.00000 0.55705
									}
								}
							}
						}
					}
				}
			}
		}
	}
}
MOTION
Frames: 8
Frame Time: .0083333
8.19 15.1248 41.9545 0 0 0 0 0 0 -21 0 0 0 0 0 0 0 0 0 0 0 0 0 0 21 0 0 0 0 0 0 0 0 0 0 0 0 0 0 0 0 0 0 0 0 0 0 -16 0 0 21 0 0 11 0 0 0 -8 0 0 0 0 0 0 0 0 0 0 0 0 0 0 0 0 0 0 0 0 8 0 0 0 0 0 0 0 0 0 0 0 0 0 0 0 0 0
8.1900 15.1248 41.9545 -176.8340 -0.8379 -177.4670 0.0000 0.0000 0.0000 -22.7683 -26.1220 -3.6226 3.1165 10.8813 31.8807 2.6165 8.6925 -34.5724 0.4397 -4.2547 -11.7944 0.0000 0.0000 0.0000 25.8192 13.1968 -6.2179 -2.3255 -9.5134 27.4150 -0.9654 -13.1260 -27.5096 -0.1243 -2.2724 6.2591 -6.9455 2.3702 6.4709 -5.5488 1.7844 -2.0196 -2.1111 0.8216 -5.8301 -8.5039 -1.8193 -5.7802 13.7328 -7.1734 25.3490 5.4335 -3.7461 9.6536 0.0000 -0.0000 0.0000 -89.2168 -9.6999 106.0712 115.8595 -57.3159 -82.1932 -0.0000 0.0000 -31.1298 -13.3728 -31.1945 7.0196 -7.1250 0.0000 -0.0000 -24.8506 0.4511 27.3796 0.0000 -0.0000 0.0000 94.3178 10.7725 94.2465 -20.9135 31.7272 -6.0044 0.0000 0.0000 13.5968 7.8076 -55.0569 -6.4130 7.1250 -0.0000 -0.0000 82.0413 -69.1789 -59.4008
8.1923 15.1239 41.9563 -176.9000 -0.8574 -177.5110 0.0000 0.0000 0.0000 -22.7476 -25.7402 -3.7654 3.1096 10.8704 31.8442 2.5842 8.5043 -34.2862 0.6047 -4.9777 -13.8449 0.0000 0.0000 0.0000 25.7589 13.1473 -6.2410 -2.3346 -9.5308 27.4702 -0.9690 -13.0028 -27.4202 -0.1229 -2.2596 6.2235 -7.0883 2.3422 6.5456 -5.5330 1.7271 -1.9865 -2.0105 0.7975 -5.8431 -8.7890 -1.7308 -5.1307 14.0579 -6.9653 24.6008 5.6130 -3.6611 9.2525 0.0000 0.0000 0.0000 -89.2603 -9.7576 105.8448 115.7497 -57.3401 -82.1008 -0.0000 0.0000 -30.8397 -14.0077 -30.9642 7.3141 -7.1250 0.0000 -0.0000 -25.1878 0.6514 27.7452 0.0000 0.0000 0.0000 94.2539 10.7847 94.4267 -20.9494 31.7693 -6.0233 0.0000 0.0000 13.6394 7.9700 -55.1405 -6.5536 7.1250 -0.0000 -0.0000 82.3284 -69.1416 -59.6413
8.1932 15.1226 41.9574 -176.9520 -0.9058 -177.6160 0.0000 0.0000 0.0000 -22.8076 -25.5680 -3.7398 3.1089 10.8692 31.8401 2.5794 8.3787 -34.1878 0.7089 -5.3812 -14.9992 0.0000 0.0000 0.0000 25.7300 13.0884 -6.1546 -2.3407 -9.5424 27.5073 -0.9911 -12.8662 -27.4544 -0.1366 -2.3823 6.5634 -7.1999 2.3102 6.6693 -5.4897 1.6686 -1.9396 -1.8995 0.7742 -5.8684 -8.7540 -1.8020 -5.5347 13.7504 -7.0532 25.0624 5.4938 -3.7110 9.4952 0.0000 0.0000 0.0000 -89.3625 -9.7797 105.6403 115.6569 -57.3604 -82.0227 -0.0000 0.0000 -30.6827 -14.3059 -31.0769 7.4988 -7.1250 0.0000 -0.0000 -25.3281 0.5391 27.9917 0.0000 0.0000 0.0000 94.1293 10.8228 94.6900 -21.0110 31.8412 -6.0558 0.0000 0.0000 13.4409 8.0130 -55.3790 -6.6080 7.1250 -0.0000 -0.0000 82.9535 -69.1742 -60.3124
8.1930 15.1212 41.9581 -176.9840 -0.9173 -177.6720 0.0000 0.0000 0.0000 -22.8448 -25.4705 -3.7277 3.1081 10.8681 31.8363 2.5716 8.3597 -34.1337 0.6140 -5.0150 -13.9514 0.0000 0.0000 0.0000 25.7002 13.0639 -6.1077 -2.3447 -9.5499 27.5310 -0.9930 -12.9359 -27.5335 -0.1406 -2.4166 6.6584 -7.2270 2.3346 6.7355 -5.5022 1.6909 -1.9081 -1.9020 0.7845 -5.8741 -8.8898 -1.8061 -5.4254 13.8577 -7.0696 25.0081 5.5556 -3.7275 9.4643 0.0000 -0.0000 0.0000 -89.2853 -9.7484 105.8203 115.8612 -57.3156 -82.1946 -0.0000 0.0000 -31.1508 -13.5073 -31.4303 7.1398 -7.1250 0.0000 -0.0000 -24.9004 0.2292 27.5513 0.0000 -0.0000 0.0000 94.1194 10.8538 94.6956 -21.0376 31.8722 -6.0698 0.0000 0.0000 13.1958 7.7017 -55.6121 -6.3679 7.1250 -0.0000 -0.0000 83.4122 -69.3221 -60.9643
8.1930 15.1233 41.9587 -177.0080 -0.9387 -177.5790 0.0000 0.0000 0.0000 -22.8055 -25.4777 -3.8720 3.1109 10.8725 31.8510 2.5545 8.3497 -34.0334 0.5637 -4.8087 -13.3637 0.0000 0.0000 0.0000 25.6495 13.0941 -6.2162 -2.3449 -9.5503 27.5323 -0.9779 -13.0914 -27.5680 -0.1328 -2.3489 6.4710 -7.2205 2.3469 6.6984 -5.5650 1.7003 -1.9169 -1.9715 0.7843 -5.8609 -8.9222 -1.8335 -5.6127 14.0416 -7.1500 25.0569 5.6198 -3.7454 9.5369 0.0000 0.0000 0.0000 -89.2018 -9.7037 105.9034 115.9366 -57.2989 -82.2581 -0.0000 0.0000 -31.0518 -13.0922 -31.2182 6.8731 -7.1250 0.0000 -0.0000 -24.7073 0.4340 27.1930 0.0000 0.0000 0.0000 94.2232 10.8573 94.5815 -21.0101 31.8401 -6.0553 0.0000 0.0000 13.1290 6.9208 -55.6989 -5.7260 7.1250 -0.0000 -0.0000 83.3019 -69.5997 -61.2031
8.1939 15.1258 41.9605 -176.9920 -1.0010 -177.4730 0.0000 0.0000 0.0000 -22.6933 -25.4567 -4.0748 3.1165 10.8813 31.8806 2.5376 8.2723 -33.8948 0.6617 -5.2026 -14.4874 0.0000 0.0000 0.0000 25.6492 13.1645 -6.3213 -2.3435 -9.5476 27.5239 -0.9931 -12.9975 -27.5914 -0.1443 -2.4477 6.7446 -7.2101 2.3260 6.6843 -5.6003 1.6672 -1.9352 -2.0105 0.7656 -5.8706 -8.9541 -1.8212 -5.5249 14.2560 -7.1594 24.8836 5.6991 -3.7381 9.4679 0.0000 -0.0000 0.0000 -89.2376 -9.6654 105.7746 115.8784 -57.3118 -82.2091 -0.0000 0.0000 -30.6203 -13.7583 -30.7474 7.1353 -7.1250 0.0000 -0.0000 -25.0797 0.8587 27.4987 0.0000 -0.0000 0.0000 94.2966 10.8541 94.5141 -20.9849 31.8108 -6.0420 0.0000 0.0000 13.0547 6.4868 -55.3913 -5.3463 7.1250 -0.0000 -0.0000 82.3097 -69.6892 -60.3160
8.1948 15.1232 41.9645 -176.9570 -1.0477 -177.5240 0.0000 0.0000 0.0000 -22.6431 -25.3696 -4.0952 3.1208 10.8881 31.9034 2.5295 8.2259 -33.8232 0.7610 -5.5711 -15.5449 0.0000 0.0000 0.0000 25.6997 13.1978 -6.2788 -2.3434 -9.5475 27.5235 -1.0068 -12.8628 -27.5661 -0.1728 -2.6776 7.3823 -7.1442 2.3420 6.8555 -5.6487 1.6673 -1.9397 -2.1053 0.7621 -5.9699 -8.7225 -1.8686 -5.6212 14.1069 -7.2321 24.9618 5.5955 -3.7595 9.5129 0.0000 0.0000 0.0000 -89.1922 -9.6017 105.9155 116.1898 -57.2426 -82.4711 -0.0000 0.0000 -31.0149 -13.6661 -30.6571 7.0675 -7.1250 0.0000 -0.0000 -25.0403 0.9446 27.4041 0.0000 0.0000 0.0000 94.4012 10.7947 94.3154 -20.9682 31.7913 -6.0332 0.0000 0.0000 13.0755 6.7735 -55.0263 -5.5588 7.1250 -0.0000 -0.0000 81.4871 -69.5202 -59.2802
